<svg xmlns="http://www.w3.org/2000/svg" version="1.1" xmlns:xlink="http://www.w3.org/1999/xlink" xmlns:svgjs="http://svgjs.dev/svgjs" width="1000" height="999" viewBox="0 0 1000 999"><g transform="matrix(1,0,0,1,-0.215743440233382,-0.21552769679306039)"><svg viewBox="0 0 343 343" data-background-color="#ffffff" preserveAspectRatio="xMidYMid meet" height="999" width="1000" xmlns="http://www.w3.org/2000/svg" xmlns:xlink="http://www.w3.org/1999/xlink"><g id="tight-bounds" transform="matrix(1,0,0,1,0.0740000000000407,0.07400000000001228)"><svg viewBox="0 0 342.85155851775386 342.85155851775386" height="342.85155851775386" width="342.85155851775386"><g><svg></svg></g><g><svg viewBox="0 0 342.85155851775386 342.85155851775386" height="342.85155851775386" width="342.85155851775386"><g><path d="M0 171.426c0-94.676 76.75-171.426 171.426-171.426 94.676 0 171.426 76.75 171.426 171.426 0 94.676-76.75 171.426-171.426 171.426-94.676 0-171.426-76.75-171.426-171.426zM171.426 339.406c92.773 0 167.98-75.207 167.98-167.98 0-92.773-75.207-167.98-167.98-167.981-92.773 0-167.98 75.207-167.981 167.981 0 92.773 75.207 167.98 167.981 167.98z" data-fill-palette-color="tertiary" fill="#c10000" stroke="transparent"></path><ellipse rx="164.56874808852186" ry="164.56874808852186" cx="171.42577925887693" cy="171.42577925887693" fill="#c10000" stroke="transparent" stroke-width="0" fill-opacity="1" data-fill-palette-color="tertiary"></ellipse></g><g transform="matrix(1,0,0,1,64.84655864529837,121.41285564166549)"><svg viewBox="0 0 213.1584412271571 100.02584723442288" height="100.02584723442288" width="213.1584412271571"><g><svg viewBox="0 0 213.1584412271571 100.02584723442288" height="100.02584723442288" width="213.1584412271571"><g><svg viewBox="0 0 213.1584412271571 100.02584723442288" height="100.02584723442288" width="213.1584412271571"><g transform="matrix(1,0,0,1,0,61.81998642884548)"><svg viewBox="0 0 213.1584412271571 38.20586080557741" height="38.20586080557741" width="213.1584412271571"><g id="textblocktransform"><svg viewBox="0 0 213.1584412271571 38.20586080557741" height="38.20586080557741" width="213.1584412271571" id="textblock"><g><svg viewBox="0 0 213.1584412271571 38.20586080557741" height="38.20586080557741" width="213.1584412271571"><g transform="matrix(1,0,0,1,0,0)"><svg width="213.1584412271571" viewBox="0.98 -37.99 220.10000000000002 39.45" height="38.20586080557741" data-palette-color="#ffffff"><path d="M17.77 1.46L17.77 1.46Q14.89 1.34 12.6 0.96 10.3 0.59 8.17-0.26 6.03-1.1 4.58-2.38 3.13-3.66 2.16-5.66 1.2-7.67 0.98-10.3L0.98-10.3Q0.98-10.77 1.46-10.84L1.46-10.84Q1.61-10.79 1.95-10.79L1.95-10.79Q3.98-10.79 8.11-10.89 12.23-10.99 14.26-10.99L14.26-10.99Q14.77-10.99 15.06-10.66 15.36-10.33 15.54-9.85 15.72-9.38 15.98-8.9 16.24-8.42 16.86-8.09 17.48-7.76 18.46-7.76L18.46-7.76Q19.65-7.76 20.57-8.44 21.48-9.11 21.48-10.25L21.48-10.25Q21.48-11.01 20.7-11.65 19.92-12.28 18.64-12.68 17.36-13.09 16.2-13.37 15.04-13.65 13.82-13.85 12.6-14.06 12.4-14.11L12.4-14.11Q6.47-15.72 3.87-18.12 1.27-20.51 1.27-24.66L1.27-24.66Q1.27-27.59 2.34-29.92 3.42-32.25 5.15-33.73 6.88-35.21 9.25-36.19 11.62-37.18 14.04-37.59 16.46-37.99 19.04-37.99L19.04-37.99Q25.9-37.99 29.98-35.45L29.98-35.45Q31.47-33.96 32.17-33.19 32.86-32.42 33.51-31.4 34.16-30.37 34.41-29.38 34.67-28.39 34.77-26.95L34.77-26.95 33.89-26.07Q28.88-25.88 22.66-25.88L22.66-25.88Q21.88-25.88 21.4-26.05 20.92-26.22 20.76-26.49 20.61-26.76 20.45-27.05 20.29-27.34 20.15-27.61 20.02-27.88 19.59-28.05 19.17-28.22 18.46-28.22L18.46-28.22Q18.26-28.22 17.83-28.15 17.41-28.08 16.83-27.92 16.26-27.76 15.84-27.43 15.43-27.1 15.43-26.66L15.43-26.66Q15.43-26.12 15.98-25.68 16.53-25.24 17.14-25.05 17.75-24.85 18.65-24.62 19.56-24.39 19.78-24.32L19.78-24.32Q25.1-22.97 26.12-22.66L26.12-22.66Q31.47-20.97 33.69-18.24L33.69-18.24Q35.74-15.7 35.74-11.87L35.74-11.87Q35.74-9.55 35.14-7.64 34.55-5.74 33.57-4.42 32.59-3.1 31.13-2.08 29.66-1.05 28.16-0.44 26.66 0.17 24.76 0.59 22.85 1 21.25 1.18 19.65 1.37 17.77 1.46ZM57.22-6.05L49.7-6.05Q49.53-5.49 49.37-4.58 49.22-3.66 49.08-3.14 48.95-2.61 48.63-2.04 48.31-1.46 47.67-1.2 47.02-0.93 45.99-0.93L45.99-0.93 35.45-0.93 35.45-1.76Q36.74-5.64 39.22-13.67 41.7-21.7 43.06-25.83L43.06-25.83 43.06-25.78Q43.89-28.15 45.51-33.2L45.51-33.2Q45.53-33.25 45.58-33.33L45.58-33.33Q45.8-33.69 45.99-33.89L45.99-33.89 59.18-33.79Q62.55-33.79 62.89-33.2L62.89-33.2 62.89-32.57Q62.94-32.35 63.43-31.45L63.43-31.45Q65.79-24.19 66.89-20.9L66.89-20.9 66.89-20.61Q66.99-19.9 67.33-18.99 67.67-18.09 68.15-17.05 68.63-16.02 68.82-15.43L68.82-15.43 69.8-11.91Q70.65-9.08 72.31-4.35L72.31-4.35 72.31-4.39 72.31-3.91Q72.39-3.56 72.68-2.98 72.97-2.39 73.04-2.15L73.04-2.15Q73.04-1.46 72.76-1.27 72.48-1.07 71.68-1.07L71.68-1.07 60.35-1.07Q59.93-1.12 59.81-1.15 59.69-1.17 59.43-1.25 59.18-1.32 59.07-1.44 58.96-1.56 58.93-1.76L58.93-1.76 58.01-5.47Q57.91-5.93 57.81-5.99 57.71-6.05 57.22-6.05L57.22-6.05ZM50.88-14.65L50.88-14.75 50.88-14.65ZM56.25-17.68L56.25-17.68Q56.1-18.36 55.82-19.89 55.54-21.41 55.27-22.55 55-23.68 54.69-24.66L54.69-24.66 54.69-25.83Q54.49-26.34 54-26.56L54-26.56 54-26.51Q53.42-26.39 52.83-23.24L52.83-23.24 52.83-22.07Q52.78-21.9 52.61-21.75 52.44-21.61 52.44-21.58L52.44-21.58Q51.63-18.02 51.12-15.82L51.12-15.82Q51.12-15.58 51-14.97 50.88-14.36 50.88-14.26L50.88-14.26 56.93-14.26Q56.93-14.89 56.49-16.55L56.49-16.55 56.49-17.09Q56.47-17.16 56.36-17.37 56.25-17.58 56.25-17.68ZM72.11-24.71L72.11-24.71 72.11-33.5 100.53-33.5Q100.92-33.42 101.02-33.19 101.12-32.96 101.12-32.52L101.12-32.52 101.12-24.71Q101.07-24.12 100.43-24.12L100.43-24.12 93.5-24.12 93.5-1.66Q93.5-1.64 93.48-1.54 93.45-1.44 93.45-1.42 93.45-1.39 93.43-1.32 93.4-1.25 93.38-1.22 93.35-1.2 93.33-1.14 93.31-1.07 93.27-1.06 93.23-1.05 93.17-1.01 93.11-0.98 93.05-0.95 92.99-0.93 92.9-0.92 92.82-0.9 92.72-0.88L92.72-0.88 91.16-0.88Q88.03-0.88 88.03-1.07L88.03-1.07Q87.84-1.07 87.45-1.05 87.06-1.03 86.86-1.03L86.86-1.03 84.91-1.03Q84.35-1.03 83.31-1 82.27-0.98 81.68-0.98L81.68-0.98 80.32-0.98 79.34-1.66 79.34-6.93Q79.37-8.35 79.55-12.99 79.73-17.63 79.73-20.31L79.73-20.31 79.73-20.95Q79.73-21.14 79.76-21.56 79.78-21.97 79.78-22.17L79.78-22.17Q79.78-22.39 79.76-23.06 79.73-23.73 79.73-23.93L79.73-23.93 73.63-23.93Q73.09-23.93 72.6-24.11 72.11-24.29 72.11-24.71ZM134.61-32.57L134.61-32.57 134.61-2.54Q134.61-2.03 134.58-1.72 134.54-1.42 134.37-1.15 134.2-0.88 133.88-0.88L133.88-0.88 121.43-0.88 121.43-1.42Q121.38-1.46 121.05-1.64 120.72-1.81 120.65-1.95L120.65-1.95 120.65-11.82Q120.65-12.35 120.56-12.43 120.48-12.5 119.87-12.5L119.87-12.5 118.21-12.5Q117.62-12.5 116.84-12.4L116.84-12.4 116.84-1.86Q116.74-1.42 116.46-1.29 116.18-1.17 115.62-1.17L115.62-1.17 114.49-1.17Q113.35-1.17 110.89-1.12 108.44-1.07 107.17-1.07L107.17-1.07 103.95-1.07Q102.9-1.07 102.9-2.25L102.9-2.25 103.04-33.01Q103.04-33.13 103.12-33.22 103.19-33.3 103.41-33.46 103.63-33.62 103.65-33.64L103.65-33.64 116.79-33.64 116.79-23.14 121.04-23.14 121.04-33.89 133.49-33.89Q134.07-33.89 134.34-33.62 134.61-33.35 134.61-32.57ZM152.28-0.93L138.91-0.93 138.91-33.01Q138.93-33.2 139.3-33.36 139.66-33.52 139.74-33.59L139.74-33.59 152.87-33.59 152.87-1.81Q152.75-1.29 152.64-1.11 152.53-0.93 152.28-0.93L152.28-0.93ZM176.4-24.12L176.4-24.12Q175.74-24.12 175.33-24.32 174.91-24.51 174.67-24.8 174.43-25.1 174.12-25.39 173.82-25.68 173.16-25.88 172.5-26.07 171.47-26.07L171.47-26.07Q171.15-26.07 170.7-26.01 170.25-25.95 169.71-25.68 169.18-25.42 169.18-25L169.18-25Q169.18-24.54 169.63-24.21 170.08-23.88 170.65-23.74 171.23-23.61 171.95-23.43 172.67-23.24 172.96-23.1L172.96-23.1 176.55-22.22Q178.14-21.78 179.41-21.29 180.68-20.8 182.1-19.96 183.53-19.12 184.48-18.09 185.44-17.07 186.07-15.52 186.71-13.96 186.71-12.11L186.71-12.11Q186.71-9.86 186.12-8.11L186.12-8.11 186.12-8.15Q185.61-6.59 184.68-5.36 183.75-4.13 182.48-3.31 181.21-2.49 179.92-1.94 178.63-1.39 176.93-1.06 175.23-0.73 173.9-0.57 172.57-0.42 170.84-0.29L170.84-0.29Q163.15-0.68 160.53-2.73L160.53-2.73 160.53-3.03Q158.31-4.69 157.25-6.64 156.19-8.59 155.99-11.04L155.99-11.04Q155.99-11.62 156.53-11.62L156.53-11.62Q156.68-11.62 156.97-11.6 157.26-11.57 157.41-11.57L157.41-11.57 159.9-11.57Q160.24-11.62 160.88-11.62L160.88-11.62 161.51-11.62Q161.71-11.62 161.85-11.57L161.85-11.57Q163.27-11.62 166.69-11.62L166.69-11.62 167.81-11.62Q168.3-11.62 168.57-11.33 168.84-11.04 168.99-10.61 169.15-10.18 169.36-9.75 169.57-9.33 170.1-9.03 170.64-8.74 171.52-8.74L171.52-8.74Q172.47-8.74 173.24-9.24 174.01-9.74 174.01-10.69L174.01-10.69Q174.01-11.13 173.6-11.52 173.18-11.91 172.35-12.23 171.52-12.55 170.87-12.74 170.23-12.94 169.13-13.21 168.03-13.48 167.71-13.57L167.71-13.57 166.25-13.57Q160.95-15.14 158.62-17.54 156.29-19.95 156.29-23.63L156.29-23.63Q156.29-26.07 157.2-28.03 158.12-29.98 159.62-31.23 161.12-32.47 163.15-33.31 165.17-34.16 167.27-34.51 169.37-34.86 171.62-34.86L171.62-34.86Q175.6-34.86 179-33.53 182.41-32.2 184.17-30.08L184.17-30.08Q184.8-29.44 185.19-28.47 185.58-27.49 185.69-26.92 185.8-26.34 185.97-25L185.97-25 185.29-24.02 181.14-24.02Q180.46-24.02 178.87-24.07 177.28-24.12 176.4-24.12ZM221.08-32.57L221.08-32.57 221.08-2.54Q221.08-2.03 221.04-1.72 221.01-1.42 220.83-1.15 220.66-0.88 220.35-0.88L220.35-0.88 207.9-0.88 207.9-1.42Q207.85-1.46 207.52-1.64 207.19-1.81 207.11-1.95L207.11-1.95 207.11-11.82Q207.11-12.35 207.03-12.43 206.94-12.5 206.33-12.5L206.33-12.5 204.67-12.5Q204.09-12.5 203.31-12.4L203.31-12.4 203.31-1.86Q203.21-1.42 202.93-1.29 202.65-1.17 202.08-1.17L202.08-1.17 200.96-1.17Q199.81-1.17 197.36-1.12 194.91-1.07 193.64-1.07L193.64-1.07 190.41-1.07Q189.36-1.07 189.36-2.25L189.36-2.25 189.51-33.01Q189.51-33.13 189.58-33.22 189.66-33.3 189.88-33.46 190.1-33.62 190.12-33.64L190.12-33.64 203.26-33.64 203.26-23.14 207.5-23.14 207.5-33.89 219.96-33.89Q220.54-33.89 220.81-33.62 221.08-33.35 221.08-32.57Z" opacity="1" transform="matrix(1,0,0,1,0,0)" fill="#ffffff" class="wordmark-text-0" data-fill-palette-color="quaternary" id="text-0"></path></svg></g></svg></g></svg></g></svg></g><g transform="matrix(1,0,0,1,53.90892294921264,0)"><svg viewBox="0 0 105.34059532873184 52.800499633307986" height="52.800499633307986" width="105.34059532873184"><g><svg xmlns="http://www.w3.org/2000/svg" xmlns:xlink="http://www.w3.org/1999/xlink" xml:space="preserve" style="shape-rendering:geometricPrecision;text-rendering:geometricPrecision;image-rendering:optimizeQuality;" viewBox="0.0000020000000000575113 0.0000027841116459863258 14.727499 7.381952827609914" x="0" y="0" fill-rule="evenodd" clip-rule="evenodd" width="105.34059532873184" height="52.800499633307986" class="icon-icon-0" data-fill-palette-color="quaternary" id="icon-0"><g fill="#ffffff" data-fill-palette-color="quaternary"><path class="" d="M1.757 3.091c-0.313 0.444-0.296 1.331-0.417 1.95-0.153 0.784-0.711 1.203-1.34 1.534 0.188-0.771 0.348-1.542 0.412-2.313 0.078-0.953-0.06-0.891 0.767-1.575 1.159-0.961 3.04-1.741 5.848-2.29 2.456-0.406 5.049-0.453 7.701-0.351-0.89 1.809-3.733 1.961-7.203 1.581-1.811 0.02-3.495-0.488-5.768 1.464z m8.33 2.781c-3.895 2.038-7.803-2.284-9.165 0.688 2.104-1.831 5.079 3.183 9.165-0.688z m2.489-2.547c-4.49 2.72-9.502-0.792-10.907 1.859 3.412-1.235 7.765 2.753 10.907-1.859z m0.834-1.478c-3.944 1.761-10.043-1.402-11.565 2.239 3.106-1.808 8.446 1.438 11.565-2.239z" fill="#ffffff" data-fill-palette-color="quaternary"></path></g></svg></g></svg></g><g></g></svg></g></svg></g></svg></g></svg></g><defs></defs></svg><rect width="342.85155851775386" height="342.85155851775386" fill="none" stroke="none" visibility="hidden"></rect></g></svg></g></svg>