{
  "accessors": [
    {
      "bufferView": 2,
      "componentType": 5126,
      "count": 60,
      "max": [
        9.183119773864746,
        9.001740455627441,
        2.900670051574707
      ],
      "min": [
        -9.088939666748047,
        -9.161089897155762,
        -0.0029934600461274385
      ],
      "type": "VEC3"
    },
    {
      "bufferView": 2,
      "byteOffset": 720,
      "componentType": 5126,
      "count": 60,
      "max": [
        0.9927586913108826,
        0.9999769926071167,
        3.02002753317307e-14
      ],
      "min": [
        -0.9982629418373108,
        -0.984523594379425,
        -1.0662888656070863e-14
      ],
      "type": "VEC3"
    },
    {
      "bufferView": 1,
      "componentType": 5126,
      "count": 60,
      "max": [
        0.9992570281028748,
        0.9992830157279968
      ],
      "min": [
        0.0007126330165192485,
        0.0007491110009141266
      ],
      "type": "VEC2"
    },
    {
      "bufferView": 0,
      "componentType": 5125,
      "count": 90,
      "type": "SCALAR"
    },
    {
      "bufferView": 2,
      "byteOffset": 1440,
      "componentType": 5126,
      "count": 391,
      "max": [
        0.2580829858779907,
        -1.8832099437713623,
        1.934399962425232
      ],
      "min": [
        -0.2775470018386841,
        -3.5000898838043213,
        1.368589997291565
      ],
      "type": "VEC3"
    },
    {
      "bufferView": 2,
      "byteOffset": 6132,
      "componentType": 5126,
      "count": 391,
      "max": [
        0.9999996423721313,
        0.9994426369667053,
        0.999445378780365
      ],
      "min": [
        -0.9999996423721313,
        -0.9999963045120239,
        -0.9980071187019348
      ],
      "type": "VEC3"
    },
    {
      "bufferView": 1,
      "byteOffset": 480,
      "componentType": 5126,
      "count": 391,
      "max": [
        0.728393018245697,
        0.8520500063896179
      ],
      "min": [
        0.2824710011482239,
        0.330810010433197
      ],
      "type": "VEC2"
    },
    {
      "bufferView": 0,
      "byteOffset": 360,
      "componentType": 5125,
      "count": 744,
      "type": "SCALAR"
    },
    {
      "bufferView": 2,
      "byteOffset": 10824,
      "componentType": 5126,
      "count": 1141,
      "max": [
        0.8832470178604126,
        5.2902398109436035,
        1.6445300579071045
      ],
      "min": [
        -0.9163680076599121,
        -5.810649871826172,
        0.7125899791717529
      ],
      "type": "VEC3"
    },
    {
      "bufferView": 2,
      "byteOffset": 24516,
      "componentType": 5126,
      "count": 1141,
      "max": [
        0.9972103238105774,
        0.9993581175804138,
        0.9956972002983093
      ],
      "min": [
        -0.9973488450050354,
        -0.9942834973335266,
        -0.9985035061836243
      ],
      "type": "VEC3"
    },
    {
      "bufferView": 1,
      "byteOffset": 3608,
      "componentType": 5126,
      "count": 1141,
      "max": [
        0.9973139762878418,
        0.9984130263328552
      ],
      "min": [
        0.3354420065879822,
        0.5570039749145508
      ],
      "type": "VEC2"
    },
    {
      "bufferView": 0,
      "byteOffset": 3336,
      "componentType": 5125,
      "count": 1653,
      "type": "SCALAR"
    },
    {
      "bufferView": 2,
      "byteOffset": 38208,
      "componentType": 5126,
      "count": 18,
      "max": [
        6.53564977645874,
        6.741479873657227,
        -2.98022992950564e-08
      ],
      "min": [
        -6.519959926605225,
        -6.80325984954834,
        -2.98022992950564e-08
      ],
      "type": "VEC3"
    },
    {
      "bufferView": 2,
      "byteOffset": 38424,
      "componentType": 5126,
      "count": 18,
      "max": [
        -0.0,
        -0.0,
        1.0
      ],
      "min": [
        -0.0,
        -0.0,
        1.0
      ],
      "type": "VEC3"
    },
    {
      "bufferView": 1,
      "byteOffset": 12736,
      "componentType": 5126,
      "count": 18,
      "max": [
        0.9863529801368713,
        0.9685559868812561
      ],
      "min": [
        0.01104860007762909,
        0.034402698278427124
      ],
      "type": "VEC2"
    },
    {
      "bufferView": 0,
      "byteOffset": 9948,
      "componentType": 5125,
      "count": 60,
      "type": "SCALAR"
    },
    {
      "bufferView": 2,
      "byteOffset": 38640,
      "componentType": 5126,
      "count": 710,
      "max": [
        1.2523000240325928,
        2.263629913330078,
        0.5639359951019287
      ],
      "min": [
        -1.279539942741394,
        -1.3324600458145142,
        -0.00505870021879673
      ],
      "type": "VEC3"
    },
    {
      "bufferView": 2,
      "byteOffset": 47160,
      "componentType": 5126,
      "count": 710,
      "max": [
        0.9421036243438721,
        0.9740042090415955,
        0.9889928698539734
      ],
      "min": [
        -0.9421045184135437,
        -0.9889791011810303,
        -0.9889929890632629
      ],
      "type": "VEC3"
    },
    {
      "bufferView": 1,
      "byteOffset": 12880,
      "componentType": 5126,
      "count": 710,
      "max": [
        0.183105006814003,
        0.9995120167732239
      ],
      "min": [
        0.021973000839352608,
        0.9399409890174866
      ],
      "type": "VEC2"
    },
    {
      "bufferView": 0,
      "byteOffset": 10188,
      "componentType": 5125,
      "count": 1296,
      "type": "SCALAR"
    },
    {
      "bufferView": 2,
      "byteOffset": 55680,
      "componentType": 5126,
      "count": 9902,
      "max": [
        3.966360092163086,
        5.906899929046631,
        3.016309976577759
      ],
      "min": [
        -3.9964799880981445,
        -5.524320125579834,
        0.05409270152449608
      ],
      "type": "VEC3"
    },
    {
      "bufferView": 2,
      "byteOffset": 174504,
      "componentType": 5126,
      "count": 9902,
      "max": [
        0.9999999403953552,
        0.999999463558197,
        0.999988853931427
      ],
      "min": [
        -0.9999998807907104,
        -0.9999995827674866,
        -0.9999990463256836
      ],
      "type": "VEC3"
    },
    {
      "bufferView": 3,
      "componentType": 5126,
      "count": 9902,
      "max": [
        1.0,
        1.0,
        1.0,
        1.0
      ],
      "min": [
        -1.0,
        -1.0,
        -0.9999926090240479,
        -1.0
      ],
      "type": "VEC4"
    },
    {
      "bufferView": 1,
      "byteOffset": 18560,
      "componentType": 5126,
      "count": 9902,
      "max": [
        0.9984130263328552,
        1.0
      ],
      "min": [
        0.0031739999540150166,
        0.0
      ],
      "type": "VEC2"
    },
    {
      "bufferView": 0,
      "byteOffset": 15372,
      "componentType": 5125,
      "count": 21786,
      "type": "SCALAR"
    },
    {
      "bufferView": 2,
      "byteOffset": 293328,
      "componentType": 5126,
      "count": 20,
      "max": [
        0.8806220293045044,
        4.175389766693115,
        1.27892005443573
      ],
      "min": [
        -0.9122909903526306,
        2.1281399726867676,
        0.7088509798049927
      ],
      "type": "VEC3"
    },
    {
      "bufferView": 2,
      "byteOffset": 293568,
      "componentType": 5126,
      "count": 20,
      "max": [
        0.0009810434421524405,
        0.9998133778572083,
        -0.019294587895274162
      ],
      "min": [
        -0.0009812983917072415,
        -0.9994446039199829,
        -0.03331781551241875
      ],
      "type": "VEC3"
    },
    {
      "bufferView": 1,
      "byteOffset": 97776,
      "componentType": 5126,
      "count": 20,
      "max": [
        0.9868159890174866,
        0.9931640028953552
      ],
      "min": [
        0.3775629997253418,
        0.0031740099657326937
      ],
      "type": "VEC2"
    },
    {
      "bufferView": 0,
      "byteOffset": 102516,
      "componentType": 5125,
      "count": 36,
      "type": "SCALAR"
    },
    {
      "bufferView": 2,
      "byteOffset": 293808,
      "componentType": 5126,
      "count": 4,
      "max": [
        9.976510047912598,
        9.94871997833252,
        -0.0029925000853836536
      ],
      "min": [
        -10.003399848937988,
        -9.958109855651855,
        -0.0029925000853836536
      ],
      "type": "VEC3"
    },
    {
      "bufferView": 2,
      "byteOffset": 293856,
      "componentType": 5126,
      "count": 4,
      "max": [
        -4.3711398944878965e-08,
        -0.0,
        1.0
      ],
      "min": [
        -4.3711398944878965e-08,
        -0.0,
        1.0
      ],
      "type": "VEC3"
    },
    {
      "bufferView": 3,
      "byteOffset": 158432,
      "componentType": 5126,
      "count": 4,
      "max": [
        1.0,
        0.0,
        4.3711398944878965e-08,
        1.0
      ],
      "min": [
        1.0,
        0.0,
        4.3711398944878965e-08,
        1.0
      ],
      "type": "VEC4"
    },
    {
      "bufferView": 1,
      "byteOffset": 97936,
      "componentType": 5126,
      "count": 4,
      "max": [
        0.9992570281028748,
        0.9992830157279968
      ],
      "min": [
        0.0007126330165192485,
        0.0007491110009141266
      ],
      "type": "VEC2"
    },
    {
      "bufferView": 0,
      "byteOffset": 102660,
      "componentType": 5125,
      "count": 6,
      "type": "SCALAR"
    },
    {
      "bufferView": 2,
      "byteOffset": 293904,
      "componentType": 5126,
      "count": 118,
      "max": [
        0.21922899782657623,
        -1.8840899467468262,
        1.9484200477600098
      ],
      "min": [
        -0.2378930002450943,
        -3.4349899291992188,
        1.5489100217819214
      ],
      "type": "VEC3"
    },
    {
      "bufferView": 2,
      "byteOffset": 295320,
      "componentType": 5126,
      "count": 118,
      "max": [
        0.9958070516586304,
        0.1469367891550064,
        0.9997222423553467
      ],
      "min": [
        -0.9958750009536743,
        -0.5038449764251709,
        -0.2921689748764038
      ],
      "type": "VEC3"
    },
    {
      "bufferView": 1,
      "byteOffset": 97968,
      "componentType": 5126,
      "count": 118,
      "max": [
        0.16173499822616577,
        0.10553199797868729
      ],
      "min": [
        0.1370909959077835,
        0.0018889900529757142
      ],
      "type": "VEC2"
    },
    {
      "bufferView": 0,
      "byteOffset": 102684,
      "componentType": 5125,
      "count": 438,
      "type": "SCALAR"
    }
  ],
  "asset": {
    "extras": {
      "author": "ᗩᒪE᙭. Kᗩ.🚗 (https://sketchfab.com/Alex.Ka.)",
      "license": "CC-BY-NC-ND-4.0 (http://creativecommons.org/licenses/by-nc-nd/4.0/)",
      "source": "https://sketchfab.com/3d-models/su-33-flanker-d-3d3e2c35670f4ebcbe5566e016e2473c",
      "title": "SU-33 Flanker-D"
    },
    "generator": "Sketchfab-15.38.0",
    "version": "2.0"
  },
  "bufferViews": [
    {
      "buffer": 0,
      "byteLength": 104436,
      "name": "floatBufferViews",
      "target": 34963
    },
    {
      "buffer": 0,
      "byteLength": 98912,
      "byteOffset": 104436,
      "byteStride": 8,
      "name": "floatBufferViews",
      "target": 34962
    },
    {
      "buffer": 0,
      "byteLength": 296736,
      "byteOffset": 203348,
      "byteStride": 12,
      "name": "floatBufferViews",
      "target": 34962
    },
    {
      "buffer": 0,
      "byteLength": 158496,
      "byteOffset": 500084,
      "byteStride": 16,
      "name": "floatBufferViews",
      "target": 34962
    }
  ],
  "buffers": [
    {
      "byteLength": 658580,
      "uri": "scene.bin"
    }
  ],
  "extensionsUsed": [
    "KHR_materials_clearcoat",
    "KHR_materials_specular"
  ],
  "images": [
    {
      "uri": "textures/Smoke_baseColor.png"
    },
    {
      "uri": "textures/Smoke_emissive.png"
    },
    {
      "uri": "textures/Su33matte_baseColor.jpeg"
    },
    {
      "uri": "textures/Su33shadow_baseColor.png"
    },
    {
      "uri": "textures/Su_33_Flanker_D_normal.png"
    },
    {
      "uri": "textures/floor_baseColor.png"
    },
    {
      "uri": "textures/floor_normal.png"
    },
    {
      "uri": "textures/glass_baseColor.png"
    },
    {
      "uri": "textures/glass_metallicRoughness.png"
    }
  ],
  "materials": [
    {
      "alphaMode": "BLEND",
      "emissiveTexture": {
        "index": 1
      },
      "extensions": {
        "KHR_materials_clearcoat": {
          "clearcoatFactor": 1.0,
          "clearcoatRoughnessFactor": 0.04
        },
        "KHR_materials_specular": {
          "specularColorFactor": [
            1.0,
            1.0,
            1.0
          ],
          "specularFactor": 1.0
        }
      },
      "name": "Smoke",
      "pbrMetallicRoughness": {
        "baseColorFactor": [
          0.19991562616092734,
          0.19991562616092734,
          0.19991562616092734,
          1.0
        ],
        "baseColorTexture": {
          "index": 0
        },
        "metallicFactor": 0.0,
        "roughnessFactor": 0.0
      }
    },
    {
      "extensions": {
        "KHR_materials_specular": {
          "specularColorFactor": [
            1.0,
            1.0,
            1.0
          ],
          "specularFactor": 0.0
        }
      },
      "name": "Su33matte",
      "pbrMetallicRoughness": {
        "baseColorTexture": {
          "index": 2
        },
        "metallicFactor": 0.0
      }
    },
    {
      "emissiveFactor": [
        0.33,
        0.33,
        0.33
      ],
      "emissiveTexture": {
        "index": 2
      },
      "extensions": {
        "KHR_materials_clearcoat": {
          "clearcoatFactor": 1.0,
          "clearcoatRoughnessFactor": 0.04
        },
        "KHR_materials_specular": {
          "specularColorFactor": [
            1.0,
            1.0,
            1.0
          ],
          "specularFactor": 1.0
        }
      },
      "name": "Su33metal",
      "pbrMetallicRoughness": {
        "baseColorTexture": {
          "index": 2
        },
        "roughnessFactor": 0.0
      }
    },
    {
      "alphaMode": "BLEND",
      "extensions": {
        "KHR_materials_specular": {
          "specularColorFactor": [
            1.0,
            1.0,
            1.0
          ],
          "specularFactor": 0.0
        }
      },
      "name": "Su33shadow",
      "pbrMetallicRoughness": {
        "baseColorFactor": [
          1.0,
          1.0,
          1.0,
          0.95
        ],
        "baseColorTexture": {
          "index": 3
        },
        "metallicFactor": 0.0
      }
    },
    {
      "extensions": {
        "KHR_materials_specular": {
          "specularColorFactor": [
            1.0,
            1.0,
            1.0
          ],
          "specularFactor": 0.0
        }
      },
      "name": "Su33wheels",
      "pbrMetallicRoughness": {
        "baseColorFactor": [
          0.09,
          0.09,
          0.09,
          1.0
        ],
        "baseColorTexture": {
          "index": 2
        },
        "metallicFactor": 0.0
      }
    },
    {
      "emissiveFactor": [
        0.05,
        0.05,
        0.05
      ],
      "emissiveTexture": {
        "index": 2
      },
      "extensions": {
        "KHR_materials_specular": {
          "specularColorFactor": [
            1.0,
            1.0,
            1.0
          ],
          "specularFactor": 1.0
        }
      },
      "name": "Su_33_Flanker_D",
      "normalTexture": {
        "index": 4
      },
      "pbrMetallicRoughness": {
        "baseColorFactor": [
          0.33,
          0.33,
          0.33,
          1.0
        ],
        "baseColorTexture": {
          "index": 2
        },
        "roughnessFactor": 0.133
      }
    },
    {
      "doubleSided": true,
      "extensions": {
        "KHR_materials_specular": {
          "specularColorFactor": [
            1.0,
            1.0,
            1.0
          ],
          "specularFactor": 0.0
        }
      },
      "name": "black_matte",
      "pbrMetallicRoughness": {
        "baseColorFactor": [
          0.0,
          0.0,
          0.0,
          1.0
        ],
        "metallicFactor": 0.0
      }
    },
    {
      "alphaMode": "BLEND",
      "extensions": {
        "KHR_materials_specular": {
          "specularColorFactor": [
            1.0,
            1.0,
            1.0
          ],
          "specularFactor": 1.0
        }
      },
      "name": "floor",
      "normalTexture": {
        "index": 6,
        "scale": 0.23769495708897662
      },
      "pbrMetallicRoughness": {
        "baseColorFactor": [
          0.45,
          0.45,
          0.45,
          1.0
        ],
        "baseColorTexture": {
          "index": 5
        },
        "roughnessFactor": 0.17472940554222785
      }
    },
    {
      "alphaMode": "BLEND",
      "doubleSided": true,
      "extensions": {
        "KHR_materials_clearcoat": {
          "clearcoatFactor": 1.0,
          "clearcoatRoughnessFactor": 0.04
        },
        "KHR_materials_specular": {
          "specularColorFactor": [
            1.0,
            1.0,
            1.0
          ],
          "specularFactor": 1.0
        }
      },
      "name": "glass",
      "pbrMetallicRoughness": {
        "baseColorFactor": [
          1.0,
          1.0,
          1.0,
          0.6
        ],
        "baseColorTexture": {
          "index": 7
        },
        "metallicRoughnessTexture": {
          "index": 8
        }
      }
    }
  ],
  "meshes": [
    {
      "name": "Object_0",
      "primitives": [
        {
          "attributes": {
            "NORMAL": 1,
            "POSITION": 0,
            "TEXCOORD_0": 2
          },
          "indices": 3,
          "material": 0,
          "mode": 4
        }
      ]
    },
    {
      "name": "Object_1",
      "primitives": [
        {
          "attributes": {
            "NORMAL": 5,
            "POSITION": 4,
            "TEXCOORD_0": 6
          },
          "indices": 7,
          "material": 1,
          "mode": 4
        }
      ]
    },
    {
      "name": "Object_2",
      "primitives": [
        {
          "attributes": {
            "NORMAL": 9,
            "POSITION": 8,
            "TEXCOORD_0": 10
          },
          "indices": 11,
          "material": 2,
          "mode": 4
        }
      ]
    },
    {
      "name": "Object_3",
      "primitives": [
        {
          "attributes": {
            "NORMAL": 13,
            "POSITION": 12,
            "TEXCOORD_0": 14
          },
          "indices": 15,
          "material": 3,
          "mode": 4
        }
      ]
    },
    {
      "name": "Object_4",
      "primitives": [
        {
          "attributes": {
            "NORMAL": 17,
            "POSITION": 16,
            "TEXCOORD_0": 18
          },
          "indices": 19,
          "material": 4,
          "mode": 4
        }
      ]
    },
    {
      "name": "Object_5",
      "primitives": [
        {
          "attributes": {
            "NORMAL": 21,
            "POSITION": 20,
            "TANGENT": 22,
            "TEXCOORD_0": 23
          },
          "indices": 24,
          "material": 5,
          "mode": 4
        }
      ]
    },
    {
      "name": "Object_6",
      "primitives": [
        {
          "attributes": {
            "NORMAL": 26,
            "POSITION": 25,
            "TEXCOORD_0": 27
          },
          "indices": 28,
          "material": 6,
          "mode": 4
        }
      ]
    },
    {
      "name": "Object_7",
      "primitives": [
        {
          "attributes": {
            "NORMAL": 30,
            "POSITION": 29,
            "TANGENT": 31,
            "TEXCOORD_0": 32
          },
          "indices": 33,
          "material": 7,
          "mode": 4
        }
      ]
    },
    {
      "name": "Object_8",
      "primitives": [
        {
          "attributes": {
            "NORMAL": 35,
            "POSITION": 34,
            "TEXCOORD_0": 36
          },
          "indices": 37,
          "material": 8,
          "mode": 4
        }
      ]
    }
  ],
  "nodes": [
    {
      "children": [
        1
      ],
      "matrix": [
        1.3513513803482056,
        0.0,
        0.0,
        0.0,
        0.0,
        3.00060283364313e-16,
        -1.3513513803482056,
        0.0,
        0.0,
        1.3513513803482056,
        3.00060283364313e-16,
        0.0,
        0.0,
        0.0,
        0.0,
        1.0
      ],
      "name": "Sketchfab_model"
    },
    {
      "children": [
        2,
        3,
        4,
        5,
        6,
        7,
        8,
        9,
        10
      ],
      "name": "Su-33 Flanker-D.obj.cleaner.materialmerger.gles"
    },
    {
      "mesh": 0,
      "name": "Object_2"
    },
    {
      "mesh": 1,
      "name": "Object_3"
    },
    {
      "mesh": 2,
      "name": "Object_4"
    },
    {
      "mesh": 3,
      "name": "Object_5"
    },
    {
      "mesh": 4,
      "name": "Object_6"
    },
    {
      "mesh": 5,
      "name": "Object_7"
    },
    {
      "mesh": 6,
      "name": "Object_8"
    },
    {
      "mesh": 7,
      "name": "Object_9"
    },
    {
      "mesh": 8,
      "name": "Object_10"
    }
  ],
  "samplers": [
    {
      "magFilter": 9729,
      "minFilter": 9987,
      "wrapS": 10497,
      "wrapT": 10497
    }
  ],
  "scene": 0,
  "scenes": [
    {
      "name": "Sketchfab_Scene",
      "nodes": [
        0
      ]
    }
  ],
  "textures": [
    {
      "sampler": 0,
      "source": 0
    },
    {
      "sampler": 0,
      "source": 1
    },
    {
      "sampler": 0,
      "source": 2
    },
    {
      "sampler": 0,
      "source": 3
    },
    {
      "sampler": 0,
      "source": 4
    },
    {
      "sampler": 0,
      "source": 5
    },
    {
      "sampler": 0,
      "source": 6
    },
    {
      "sampler": 0,
      "source": 7
    },
    {
      "sampler": 0,
      "source": 8
    }
  ]
}
